<svg width="125" height="125" viewBox="0 0 125 125" fill="none" xmlns="http://www.w3.org/2000/svg">
<circle cx="62.5" cy="62.5" r="60.5" stroke="#0FBDE9" stroke-width="4" stroke-linecap="round" stroke-dasharray="1 10"/>
<path d="M54.1254 62.7C54.1254 63.804 53.8554 64.758 53.3154 65.562C52.7754 66.366 51.9954 66.99 50.9754 67.434C49.9674 67.866 48.7614 68.094 47.3574 68.118V69.396H46.4754V68.118C45.0714 68.094 43.8594 67.866 42.8394 67.434C41.8314 66.99 41.0574 66.366 40.5174 65.562C39.9774 64.758 39.7074 63.804 39.7074 62.7C39.7074 61.584 39.9774 60.624 40.5174 59.82C41.0574 59.016 41.8314 58.398 42.8394 57.966C43.8594 57.522 45.0714 57.288 46.4754 57.264V56.004H47.3574V57.264C49.4814 57.324 51.1374 57.828 52.3254 58.776C53.5254 59.724 54.1254 61.032 54.1254 62.7ZM47.3574 67.362C49.2054 67.302 50.6454 66.87 51.6774 66.066C52.7094 65.25 53.2254 64.122 53.2254 62.682C53.2254 61.254 52.7094 60.138 51.6774 59.334C50.6454 58.518 49.2054 58.08 47.3574 58.02V67.362ZM40.6074 62.7C40.6074 64.14 41.1234 65.262 42.1554 66.066C43.1874 66.87 44.6274 67.302 46.4754 67.362V58.02C44.6154 58.08 43.1694 58.518 42.1374 59.334C41.1174 60.138 40.6074 61.26 40.6074 62.7ZM60.7886 69.072C59.9006 69.072 59.0966 68.868 58.3766 68.46C57.6686 68.052 57.1106 67.488 56.7026 66.768C56.2946 66.036 56.0906 65.214 56.0906 64.302C56.0906 63.39 56.2946 62.574 56.7026 61.854C57.1106 61.122 57.6686 60.552 58.3766 60.144C59.0966 59.736 59.9006 59.532 60.7886 59.532C61.6766 59.532 62.4746 59.736 63.1826 60.144C63.9026 60.552 64.4666 61.122 64.8746 61.854C65.2826 62.574 65.4866 63.39 65.4866 64.302C65.4866 65.214 65.2826 66.036 64.8746 66.768C64.4666 67.488 63.9026 68.052 63.1826 68.46C62.4746 68.868 61.6766 69.072 60.7886 69.072ZM60.7886 68.262C61.5086 68.262 62.1506 68.094 62.7146 67.758C63.2906 67.422 63.7406 66.954 64.0646 66.354C64.4006 65.754 64.5686 65.07 64.5686 64.302C64.5686 63.534 64.4006 62.85 64.0646 62.25C63.7406 61.65 63.2906 61.182 62.7146 60.846C62.1506 60.51 61.5086 60.342 60.7886 60.342C60.0686 60.342 59.4206 60.51 58.8446 60.846C58.2806 61.182 57.8306 61.65 57.4946 62.25C57.1706 62.85 57.0086 63.534 57.0086 64.302C57.0086 65.07 57.1706 65.754 57.4946 66.354C57.8306 66.954 58.2806 67.422 58.8446 67.758C59.4206 68.094 60.0686 68.262 60.7886 68.262ZM74.3481 60.414H70.6761V69H69.7761V60.414H66.1041V59.604H74.3481V60.414ZM79.5796 69.072C78.6916 69.072 77.8876 68.868 77.1676 68.46C76.4596 68.052 75.9016 67.488 75.4936 66.768C75.0856 66.036 74.8816 65.214 74.8816 64.302C74.8816 63.39 75.0856 62.574 75.4936 61.854C75.9016 61.122 76.4596 60.552 77.1676 60.144C77.8876 59.736 78.6916 59.532 79.5796 59.532C80.4676 59.532 81.2656 59.736 81.9736 60.144C82.6936 60.552 83.2576 61.122 83.6656 61.854C84.0736 62.574 84.2776 63.39 84.2776 64.302C84.2776 65.214 84.0736 66.036 83.6656 66.768C83.2576 67.488 82.6936 68.052 81.9736 68.46C81.2656 68.868 80.4676 69.072 79.5796 69.072ZM79.5796 68.262C80.2996 68.262 80.9416 68.094 81.5056 67.758C82.0816 67.422 82.5316 66.954 82.8556 66.354C83.1916 65.754 83.3596 65.07 83.3596 64.302C83.3596 63.534 83.1916 62.85 82.8556 62.25C82.5316 61.65 82.0816 61.182 81.5056 60.846C80.9416 60.51 80.2996 60.342 79.5796 60.342C78.8596 60.342 78.2116 60.51 77.6356 60.846C77.0716 61.182 76.6216 61.65 76.2856 62.25C75.9616 62.85 75.7996 63.534 75.7996 64.302C75.7996 65.07 75.9616 65.754 76.2856 66.354C76.6216 66.954 77.0716 67.422 77.6356 67.758C78.2116 68.094 78.8596 68.262 79.5796 68.262Z" fill="#E1D3C1"/>
</svg>
