<svg width="112" height="88" fill="none" xmlns="http://www.w3.org/2000/svg"><path d="M15.984 29.932c0 .38-.086.739-.24 1.059-.541 1.123-1.584 2.175-1.584 3.422v4.05c0 .764.573 1.395 1.112 1.936.54.54 1.169 1.114 1.931 1.114h4.04c1.244 0 2.292-1.045 3.413-1.587a2.435 2.435 0 013.488 2.197 2.435 2.435 0 01-3.488 2.197c-1.121-.542-2.17-1.588-3.414-1.588h-3.22c-1.245 0-2.293 1.046-3.414 1.588a2.435 2.435 0 01-3.488-2.197c0-.38.087-.739.241-1.059.541-1.123 1.583-2.174 1.583-3.422v-3.23c0-1.246-1.042-2.298-1.583-3.421-.154-.32-.24-.68-.24-1.059a2.435 2.435 0 012.431-2.438 2.435 2.435 0 012.432 2.438z" fill="#57B535"/><path d="M15.984 29.932c0 .38-.086.739-.24 1.059-.541 1.123-1.584 2.175-1.584 3.422v4.05c0 .764.573 1.395 1.112 1.936.54.54 1.169 1.114 1.931 1.114h4.04c1.244 0 2.292-1.045 3.413-1.587a2.435 2.435 0 013.488 2.197 2.435 2.435 0 01-3.488 2.197c-1.121-.542-2.17-1.588-3.414-1.588h-3.22c-1.245 0-2.293 1.046-3.414 1.588a2.435 2.435 0 01-3.488-2.197c0-.38.087-.739.241-1.059.541-1.123 1.583-2.174 1.583-3.422v-3.23c0-1.246-1.042-2.298-1.583-3.421-.154-.32-.24-.68-.24-1.059a2.435 2.435 0 012.431-2.438 2.435 2.435 0 012.432 2.438zM40.89 21.105c0-.38.085-.739.24-1.059.54-1.123 1.583-2.174 1.583-3.422v-4.05c0-.764-.572-1.395-1.112-1.936-.539-.54-1.168-1.114-1.931-1.114h-4.039c-1.244 0-2.293 1.045-3.413 1.587a2.435 2.435 0 01-3.488-2.197 2.435 2.435 0 013.488-2.196c1.12.542 2.169 1.587 3.413 1.587h3.221c1.244 0 2.293-1.045 3.413-1.587a2.435 2.435 0 013.488 2.197c0 .379-.087.738-.24 1.058-.542 1.123-1.584 2.175-1.584 3.422v3.23c0 1.247 1.042 2.298 1.583 3.421.154.32.24.68.24 1.059a2.435 2.435 0 01-2.431 2.438 2.435 2.435 0 01-2.432-2.438z" fill="#57B535"/><path d="M33.006 37.246c0 .38-.086.739-.24 1.059-.541 1.123-1.583 2.175-1.583 3.422v4.05c0 .764.572 1.395 1.111 1.936.54.54 1.169 1.114 1.931 1.114h4.04c1.244 0 2.292-1.045 3.413-1.587a2.435 2.435 0 013.488 2.197 2.435 2.435 0 01-3.488 2.197c-1.12-.543-2.17-1.588-3.413-1.588h-3.221c-1.245 0-2.293 1.045-3.414 1.588a2.435 2.435 0 01-3.488-2.197c0-.38.087-.739.241-1.059.541-1.123 1.584-2.174 1.584-3.422v-3.229c0-1.247-1.043-2.299-1.584-3.422-.154-.32-.24-.68-.24-1.059a2.435 2.435 0 012.432-2.438 2.435 2.435 0 012.431 2.438z" fill="#57B535"/><path d="M52.46 42.123c0 .379-.086.738-.24 1.058-.54 1.124-1.583 2.175-1.583 3.422v4.05c0 .764.572 1.395 1.111 1.936.54.54 1.17 1.114 1.932 1.114h4.039c1.244 0 2.292-1.045 3.413-1.587a2.435 2.435 0 013.488 2.197 2.435 2.435 0 01-3.488 2.197c-1.12-.542-2.169-1.587-3.413-1.587h-3.221c-1.244 0-2.293 1.045-3.413 1.587a2.435 2.435 0 01-3.487-2.197c-.001-.38.085-.738.24-1.058.54-1.124 1.583-2.175 1.583-3.423v-3.229c0-1.247-1.042-2.298-1.583-3.422a2.435 2.435 0 012.191-3.496 2.435 2.435 0 012.432 2.438z" fill="#5C34FA"/><path d="M71.915 50.38c0 .38-.086.739-.24 1.06-.541 1.122-1.583 2.174-1.583 3.421v4.05c0 .764.572 1.395 1.111 1.936.54.54 1.169 1.114 1.932 1.114h4.039c1.244 0 2.292-1.045 3.413-1.587a2.435 2.435 0 013.488 2.197 2.435 2.435 0 01-3.488 2.197c-1.121-.542-2.17-1.587-3.413-1.587h-3.221c-1.245 0-2.293 1.045-3.413 1.587a2.435 2.435 0 01-3.488-2.197c0-.38.086-.739.24-1.059.541-1.123 1.584-2.174 1.584-3.422v-3.229c0-1.247-1.043-2.299-1.584-3.422-.154-.32-.24-.679-.24-1.059a2.435 2.435 0 012.432-2.437 2.435 2.435 0 012.431 2.437z" fill="#4F3F84"/><path d="M30.575 25.056c-.379 0-.737-.087-1.056-.241-1.12-.542-2.17-1.588-3.413-1.588h-4.04c-.762 0-1.391.574-1.93 1.115-.54.54-1.112 1.172-1.112 1.936v4.05c0 1.247 1.042 2.298 1.583 3.422.154.32.24.679.24 1.058a2.435 2.435 0 01-2.431 2.438 2.435 2.435 0 01-2.432-2.438c0-.379.086-.738.24-1.058.541-1.124 1.584-2.175 1.584-3.422v-3.23c0-1.247-1.043-2.298-1.583-3.421-.155-.32-.241-.68-.241-1.059a2.435 2.435 0 013.488-2.197c1.12.542 2.169 1.588 3.413 1.588h3.22c1.245 0 2.293-1.046 3.414-1.588a2.435 2.435 0 013.488 2.197 2.435 2.435 0 01-2.432 2.438z" fill="#57B535"/><path d="M30.575 25.056c-.379 0-.737-.087-1.056-.241-1.12-.542-2.17-1.588-3.413-1.588h-4.04c-.762 0-1.391.574-1.93 1.115-.54.54-1.112 1.172-1.112 1.936v4.05c0 1.247 1.042 2.298 1.583 3.422.154.32.24.679.24 1.058a2.435 2.435 0 01-2.431 2.438 2.435 2.435 0 01-2.432-2.438c0-.379.086-.738.24-1.058.541-1.124 1.584-2.175 1.584-3.422v-3.23c0-1.247-1.043-2.298-1.583-3.421-.155-.32-.241-.68-.241-1.059a2.435 2.435 0 013.488-2.197c1.12.542 2.169 1.588 3.413 1.588h3.22c1.245 0 2.293-1.046 3.414-1.588a2.435 2.435 0 013.488 2.197 2.435 2.435 0 01-2.432 2.438z" fill="#E1D3C1"/><path d="M55.06 11.352c-.378 0-.736-.086-1.055-.24-1.121-.543-2.17-1.588-3.413-1.588h-4.04c-.762 0-1.392.574-1.931 1.114-.54.541-1.111 1.172-1.111 1.937v4.05c0 1.247 1.042 2.298 1.583 3.421.154.32.24.68.24 1.059a2.435 2.435 0 01-2.431 2.438 2.435 2.435 0 01-2.432-2.438c0-.38.086-.739.24-1.059.541-1.123 1.584-2.174 1.584-3.422v-3.23c0-1.246-1.043-2.298-1.584-3.421-.154-.32-.24-.68-.24-1.059a2.435 2.435 0 013.487-2.197c1.12.543 2.17 1.588 3.413 1.588h3.222c1.244 0 2.292-1.045 3.413-1.588a2.435 2.435 0 013.487 2.197 2.435 2.435 0 01-2.432 2.438z" fill="#57B535"/><path d="M85.015 47.943c.379 0 .737.086 1.056.24 1.12.543 2.17 1.588 3.413 1.588h4.04c.762 0 1.392-.574 1.93-1.114.54-.541 1.112-1.172 1.112-1.937v-4.05c0-1.247-1.042-2.298-1.583-3.421-.154-.32-.24-.68-.24-1.059a2.435 2.435 0 012.431-2.438 2.435 2.435 0 012.432 2.438c0 .38-.086.739-.24 1.059-.541 1.123-1.584 2.174-1.584 3.422v3.23c0 1.246 1.043 2.298 1.584 3.421.154.32.24.68.24 1.059a2.435 2.435 0 01-3.487 2.197c-1.12-.543-2.17-1.588-3.414-1.588h-3.22c-1.245 0-2.293 1.045-3.414 1.587a2.435 2.435 0 01-3.488-2.197 2.435 2.435 0 012.432-2.437z" fill="#4F3F84"/><path d="M39.288 17.945c0 .474-.124.919-.342 1.303-.615 1.085-1.633 2.127-1.633 3.374v4.564c0 .828.62 1.512 1.204 2.098.584.585 1.266 1.207 2.092 1.207h4.552c1.244 0 2.284-1.021 3.365-1.638a2.617 2.617 0 011.3-.343 2.638 2.638 0 012.635 2.641 2.638 2.638 0 01-3.934 2.298c-1.082-.616-2.122-1.637-3.366-1.637h-3.842c-1.244 0-2.284 1.02-3.365 1.637a2.638 2.638 0 01-3.934-2.298c0-.474.124-.918.342-1.303.615-1.084 1.633-2.127 1.633-3.374v-3.852c0-1.247-1.018-2.29-1.633-3.374a2.634 2.634 0 01-.342-1.303 2.638 2.638 0 012.634-2.641 2.638 2.638 0 012.634 2.641z" fill="#57B535"/><path d="M34.02 44.358c0-.474.125-.919.342-1.303.615-1.085 1.634-2.127 1.634-3.374v-4.564c0-.828-.62-1.512-1.204-2.098-.585-.585-1.266-1.207-2.093-1.207h-4.551c-1.245 0-2.284 1.021-3.366 1.638a2.638 2.638 0 01-3.934-2.298 2.638 2.638 0 013.934-2.298c1.082.616 2.121 1.637 3.366 1.637h3.841c1.244 0 2.284-1.02 3.366-1.637a2.638 2.638 0 013.934 2.298c0 .474-.125.918-.343 1.303-.614 1.084-1.633 2.127-1.633 3.374v3.852c0 1.247 1.019 2.29 1.633 3.374.218.384.343.829.343 1.303A2.638 2.638 0 0136.654 47a2.638 2.638 0 01-2.634-2.64z" fill="#57B535"/><path d="M49.826 33.793c-.472 0-.916-.125-1.3-.343-1.081-.617-2.12-1.638-3.365-1.638H40.61c-.826 0-1.508.622-2.092 1.207-.584.586-1.204 1.27-1.204 2.098v4.564c0 1.247 1.018 2.29 1.633 3.374.218.384.343.829.343 1.303 0 1.459-1.18 2.641-2.635 2.641a2.638 2.638 0 01-2.634-2.641c0-.474.124-.919.342-1.303.615-1.085 1.634-2.127 1.634-3.374v-3.852c0-1.247-1.019-2.29-1.634-3.374a2.635 2.635 0 01-.342-1.303 2.638 2.638 0 013.934-2.298c1.082.616 2.121 1.637 3.365 1.637h3.842c1.244 0 2.284-1.02 3.366-1.637a2.638 2.638 0 013.934 2.298 2.638 2.638 0 01-2.635 2.641z" fill="#57B535"/><path d="M58.743 22.821c0 .474-.124.919-.342 1.303-.615 1.085-1.634 2.127-1.634 3.374v4.564c0 .828.62 1.512 1.204 2.098.585.586 1.267 1.207 2.093 1.207h4.552c1.244 0 2.284-1.021 3.365-1.637a2.638 2.638 0 013.934 2.298 2.638 2.638 0 01-3.934 2.297c-1.081-.616-2.121-1.637-3.365-1.637h-3.842c-1.244 0-2.284 1.021-3.365 1.637a2.638 2.638 0 01-3.934-2.298c0-.473.124-.918.342-1.303.614-1.084 1.633-2.127 1.633-3.374v-3.852c0-1.247-1.019-2.29-1.633-3.374a2.636 2.636 0 01-.343-1.303 2.638 2.638 0 012.635-2.641 2.638 2.638 0 012.634 2.641z" fill="#5C34FA"/><path d="M53.474 49.233c0-.473.124-.918.343-1.303.614-1.084 1.633-2.126 1.633-3.374v-4.563c0-.829-.62-1.512-1.204-2.098-.585-.586-1.267-1.207-2.093-1.207h-4.551c-1.244 0-2.284 1.02-3.366 1.637a2.638 2.638 0 01-3.934-2.298 2.638 2.638 0 013.934-2.298c1.082.617 2.122 1.638 3.366 1.638h3.842c1.244 0 2.283-1.021 3.365-1.638a2.638 2.638 0 013.934 2.298c0 .474-.124.919-.343 1.303-.614 1.085-1.633 2.127-1.633 3.375v3.851c0 1.248 1.019 2.29 1.633 3.374.219.385.343.83.343 1.303a2.638 2.638 0 01-2.634 2.642 2.638 2.638 0 01-2.635-2.642z" fill="#5C34FA"/><path d="M69.281 38.669c-.473 0-.916-.125-1.3-.344-1.081-.616-2.121-1.637-3.365-1.637h-4.552c-.826 0-1.508.621-2.093 1.207-.583.586-1.204 1.27-1.204 2.098v4.563c0 1.248 1.02 2.29 1.634 3.374.218.385.342.83.342 1.303a2.638 2.638 0 01-2.634 2.642 2.638 2.638 0 01-2.635-2.642c0-.473.125-.918.343-1.303.614-1.084 1.633-2.126 1.633-3.374v-3.851c0-1.248-1.019-2.29-1.633-3.374a2.636 2.636 0 01-.343-1.304 2.638 2.638 0 013.935-2.298c1.081.617 2.121 1.638 3.365 1.638h3.842c1.244 0 2.284-1.021 3.365-1.638a2.638 2.638 0 013.934 2.298 2.638 2.638 0 01-2.634 2.642z" fill="#5C34FA"/><path d="M78.197 31.079c0 .474-.124.919-.342 1.303-.615 1.085-1.633 2.127-1.633 3.374v4.564c0 .828.62 1.512 1.204 2.098.584.585 1.266 1.207 2.092 1.207h4.552c1.244 0 2.284-1.022 3.365-1.638a2.638 2.638 0 013.934 2.298 2.638 2.638 0 01-3.934 2.298c-1.081-.616-2.121-1.637-3.365-1.637h-3.842c-1.244 0-2.284 1.02-3.365 1.637a2.638 2.638 0 01-3.934-2.298c0-.474.124-.918.342-1.303.614-1.084 1.633-2.127 1.633-3.374v-3.852c0-1.247-1.019-2.29-1.633-3.374a2.636 2.636 0 01-.343-1.303 2.638 2.638 0 012.635-2.641 2.638 2.638 0 012.634 2.641z" fill="#4F3F84"/><path d="M72.928 57.492c0-.475.125-.92.343-1.304.614-1.084 1.633-2.127 1.633-3.374v-4.563c0-.829-.62-1.512-1.204-2.098-.584-.586-1.266-1.207-2.093-1.207h-4.551c-1.244 0-2.284 1.02-3.366 1.637a2.638 2.638 0 01-3.934-2.298 2.638 2.638 0 012.635-2.641c.472 0 .916.125 1.3.343 1.08.616 2.12 1.638 3.365 1.638h3.842c1.244 0 2.283-1.022 3.365-1.638a2.638 2.638 0 013.934 2.298c0 .474-.124.919-.342 1.303-.615 1.085-1.634 2.127-1.634 3.375v3.851c0 1.247 1.019 2.29 1.634 3.374.218.385.342.83.342 1.303a2.638 2.638 0 01-2.634 2.642 2.638 2.638 0 01-2.635-2.642z" fill="#4F3F84"/><path d="M88.735 46.926c-.473 0-.916-.124-1.3-.343-1.081-.616-2.121-1.637-3.365-1.637h-4.552c-.826 0-1.508.621-2.092 1.207-.584.586-1.204 1.27-1.204 2.098v4.563c0 1.247 1.018 2.29 1.633 3.374.218.385.342.83.342 1.303a2.638 2.638 0 01-2.634 2.642 2.638 2.638 0 01-2.635-2.642c0-.474.125-.918.343-1.303.614-1.084 1.633-2.127 1.633-3.374v-3.851c0-1.248-1.019-2.29-1.633-3.375a2.636 2.636 0 01-.343-1.303 2.638 2.638 0 013.935-2.298c1.081.616 2.121 1.638 3.365 1.638h3.842c1.244 0 2.284-1.022 3.365-1.638a2.638 2.638 0 013.934 2.298 2.638 2.638 0 01-2.634 2.641z" fill="#4F3F84"/><path d="M85.325 9.118c0 .473-.124.918-.343 1.303-.614 1.084-1.633 2.126-1.633 3.374v4.563c0 .829.62 1.512 1.204 2.098.584.586 1.267 1.207 2.093 1.207h4.551c1.245 0 2.284-1.02 3.366-1.637a2.638 2.638 0 013.934 2.298 2.638 2.638 0 01-3.934 2.298c-1.082-.617-2.121-1.638-3.366-1.638h-3.841c-1.244 0-2.284 1.021-3.366 1.638a2.638 2.638 0 01-3.934-2.298c0-.474.125-.919.342-1.303.615-1.085 1.634-2.127 1.634-3.375v-3.851c0-1.248-1.019-2.29-1.634-3.374a2.637 2.637 0 01-.342-1.303 2.638 2.638 0 012.634-2.642 2.638 2.638 0 012.635 2.642z" fill="#5C34FA"/><path d="M80.056 35.53c0-.474.125-.919.343-1.303.614-1.084 1.633-2.127 1.633-3.374v-4.564c0-.828-.62-1.512-1.204-2.097-.584-.586-1.266-1.208-2.093-1.208h-4.551c-1.245 0-2.284 1.021-3.366 1.638a2.638 2.638 0 01-3.934-2.298 2.638 2.638 0 012.635-2.641c.472 0 .916.125 1.3.343 1.08.616 2.12 1.638 3.365 1.638h3.842c1.244 0 2.283-1.022 3.365-1.638a2.638 2.638 0 013.934 2.298c0 .474-.124.919-.342 1.303-.615 1.085-1.634 2.127-1.634 3.374v3.852c0 1.247 1.019 2.29 1.634 3.374.218.385.342.83.342 1.303a2.638 2.638 0 01-2.634 2.641 2.638 2.638 0 01-2.635-2.64z" fill="#5C34FA"/><path d="M95.863 24.965c-.473 0-.916-.125-1.3-.343-1.082-.616-2.121-1.638-3.366-1.638h-4.551c-.826 0-1.509.622-2.093 1.208-.584.585-1.204 1.269-1.204 2.097v4.564c0 1.247 1.019 2.29 1.633 3.374.219.385.343.83.343 1.303a2.638 2.638 0 01-2.635 2.641 2.638 2.638 0 01-2.634-2.64c0-.475.125-.92.342-1.304.615-1.084 1.634-2.127 1.634-3.374V27c0-1.247-1.019-2.29-1.634-3.374a2.637 2.637 0 01-.342-1.303 2.638 2.638 0 013.934-2.298c1.082.616 2.122 1.638 3.366 1.638h3.841c1.245 0 2.284-1.022 3.366-1.638a2.616 2.616 0 011.3-.343 2.638 2.638 0 012.634 2.641 2.638 2.638 0 01-2.634 2.641z" fill="#5C34FA"/><path d="M64.78 3.233c0 .474-.124.919-.342 1.303-.614 1.084-1.634 2.127-1.634 3.374v4.564c0 .828.62 1.512 1.205 2.098.584.585 1.266 1.207 2.092 1.207h4.552c1.244 0 2.284-1.021 3.365-1.638a2.638 2.638 0 013.934 2.298 2.638 2.638 0 01-3.934 2.298c-1.081-.616-2.12-1.638-3.365-1.638h-3.842c-1.244 0-2.284 1.022-3.365 1.638a2.616 2.616 0 01-1.3.343 2.638 2.638 0 01-2.634-2.64c0-.475.124-.92.342-1.304.615-1.084 1.633-2.127 1.633-3.374V7.91c0-1.247-1.018-2.29-1.633-3.374a2.633 2.633 0 01-.342-1.303A2.638 2.638 0 0162.146.592a2.638 2.638 0 012.635 2.64z" fill="#0FBDE9"/><path d="M59.512 29.645c0-.474.124-.919.342-1.303.615-1.085 1.634-2.127 1.634-3.374v-4.564c0-.828-.62-1.512-1.205-2.098-.584-.585-1.266-1.207-2.092-1.207h-4.552c-1.244 0-2.283 1.021-3.365 1.638a2.638 2.638 0 01-3.934-2.298 2.638 2.638 0 013.934-2.298c1.082.616 2.121 1.637 3.365 1.637h3.842c1.244 0 2.284-1.02 3.365-1.637a2.638 2.638 0 013.934 2.298c0 .474-.124.918-.342 1.303-.614 1.084-1.633 2.127-1.633 3.374v3.852c0 1.247 1.019 2.29 1.633 3.374.218.384.343.829.343 1.303a2.638 2.638 0 01-2.635 2.641 2.638 2.638 0 01-2.634-2.641z" fill="#0FBDE9"/><path d="M75.318 19.08c-.472 0-.916-.125-1.3-.343-1.081-.617-2.12-1.638-3.365-1.638h-4.552c-.826 0-1.508.622-2.092 1.207-.584.586-1.205 1.27-1.205 2.098v4.564c0 1.247 1.02 2.29 1.634 3.374.218.384.343.829.343 1.303a2.638 2.638 0 01-2.635 2.641 2.638 2.638 0 01-2.634-2.641c0-.474.124-.919.342-1.303.615-1.085 1.633-2.127 1.633-3.374v-3.852c0-1.247-1.018-2.29-1.633-3.374a2.633 2.633 0 01-.342-1.303 2.638 2.638 0 012.634-2.642c.473 0 .916.125 1.3.344 1.081.616 2.121 1.637 3.365 1.637h3.842c1.244 0 2.284-1.02 3.365-1.637a2.638 2.638 0 013.934 2.298 2.638 2.638 0 01-2.634 2.641z" fill="#0FBDE9"/><path d="M92.24 63.87a4.222 4.222 0 004.217-4.227 4.222 4.222 0 00-4.216-4.227 4.222 4.222 0 00-4.217 4.227 4.222 4.222 0 004.216 4.227z" fill="#E1D3C1"/><path d="M89.86 17.238a2.435 2.435 0 002.432-2.438 2.435 2.435 0 00-2.432-2.439 2.435 2.435 0 00-2.432 2.438 2.435 2.435 0 002.432 2.439z" fill="#0FBDE9"/><path d="M69.316 11.352a2.435 2.435 0 002.431-2.438 2.435 2.435 0 00-2.431-2.438 2.435 2.435 0 00-2.432 2.438 2.435 2.435 0 002.432 2.438z" fill="#57B535"/><path d="M69.316 11.352a2.435 2.435 0 002.431-2.438 2.435 2.435 0 00-2.431-2.438 2.435 2.435 0 00-2.432 2.438 2.435 2.435 0 002.432 2.438z" fill="#0FBDE9"/><path d="M101.674 30.805a2.44 2.44 0 00-2.436-2.442c-.652 0-1.245.256-1.681.674l-.092.074c-.656.528-1.35 1.088-2.17 1.088H91.03c-.82 0-1.516-.56-2.17-1.088l-.28-.223a2.417 2.417 0 00-1.498-.517 2.435 2.435 0 00-2.432 2.438 2.435 2.435 0 002.432 2.438c.565 0 1.085-.193 1.497-.517.093-.072.186-.148.28-.223.655-.528 1.35-1.088 2.17-1.088h4.264c.82 0 1.515.56 2.17 1.088l.164.13c.429.38.993.61 1.61.61a2.441 2.441 0 002.436-2.442z" fill="#5C34FA"/><path d="M25.296 17.246a2.44 2.44 0 002.436-2.442 2.44 2.44 0 00-2.436-2.443 2.44 2.44 0 00-2.436 2.443 2.44 2.44 0 002.436 2.442z" fill="#E1D3C1"/><path d="M49.575 4.885a2.44 2.44 0 002.436-2.443A2.44 2.44 0 0049.575 0a2.44 2.44 0 00-2.436 2.442 2.44 2.44 0 002.436 2.443z" fill="#57B535"/><path d="M0 72.89h.893v12.698H0V72.89zM17.286 86.567a3.63 3.63 0 01-1.279 1.07 3.593 3.593 0 01-1.611.363c-.677 0-1.337-.181-1.98-.544-.63-.363-1.325-.955-2.084-1.778-1.202 0-2.288-.278-3.257-.834a6.145 6.145 0 01-2.26-2.322c-.549-.98-.823-2.074-.823-3.283s.274-2.303.823-3.283a6.1 6.1 0 012.295-2.303c.969-.569 2.055-.853 3.258-.853 1.202 0 2.288.278 3.257.834a5.975 5.975 0 012.277 2.304c.56.98.841 2.08.841 3.301 0 1.088-.228 2.086-.683 2.993a6.157 6.157 0 01-1.857 2.231 6.28 6.28 0 01-2.714 1.125c1.004 1.088 1.973 1.632 2.907 1.632.946 0 1.752-.405 2.417-1.215l.473.562zm-12.4-7.328c0 1.04.239 1.99.717 2.848A5.407 5.407 0 007.565 84.1c.84.484 1.775.726 2.803.726 1.027 0 1.955-.242 2.784-.726a5.408 5.408 0 001.962-2.013c.479-.859.718-1.808.718-2.848 0-1.04-.24-1.983-.718-2.83a5.236 5.236 0 00-1.962-2.013c-.829-.496-1.757-.743-2.784-.743-1.028 0-1.962.247-2.803.743a5.235 5.235 0 00-1.962 2.014c-.478.846-.718 1.79-.718 2.83zM19.114 85.66a.738.738 0 01-.526-.218.817.817 0 01-.21-.562c0-.217.07-.399.21-.544a.738.738 0 01.526-.218.68.68 0 01.508.218.722.722 0 01.227.544.781.781 0 01-.227.563.68.68 0 01-.508.217zM31.188 82.014h-7.11l-1.56 3.574h-.963l5.64-12.697h.893l5.64 12.697h-.963l-1.577-3.574zm-.332-.78l-3.223-7.328-3.206 7.328h6.429zM40.967 85.678c-1.202 0-2.288-.278-3.258-.834a6.14 6.14 0 01-2.277-2.304c-.548-.98-.823-2.08-.823-3.3 0-1.222.275-2.322.823-3.302a6.14 6.14 0 012.277-2.304c.97-.556 2.056-.834 3.258-.834a6.48 6.48 0 012.452.454c.748.29 1.384.725 1.91 1.305l-.561.599c-.98-1.004-2.236-1.505-3.766-1.505-1.027 0-1.961.241-2.802.725a5.197 5.197 0 00-1.98 2.013c-.478.847-.717 1.796-.717 2.848 0 1.052.239 2.007.718 2.866A5.233 5.233 0 0038.2 84.1c.84.484 1.775.726 2.802.726 1.518 0 2.773-.508 3.766-1.524l.56.599a5.107 5.107 0 01-1.926 1.324 6.432 6.432 0 01-2.435.453zM55.58 82.014h-7.112l-1.559 3.574h-.963l5.64-12.697h.893l5.64 12.697h-.963l-1.576-3.574zm-.333-.78l-3.223-7.328-3.205 7.328h6.428zM60.345 72.89h4.852c1.272 0 2.4.273 3.38.817a5.818 5.818 0 012.312 2.267c.549.956.823 2.044.823 3.265s-.274 2.316-.823 3.283a5.854 5.854 0 01-2.312 2.25c-.98.544-2.108.816-3.38.816h-4.852V72.89zm4.782 11.863c1.132 0 2.13-.23 2.995-.689a4.958 4.958 0 001.996-1.959c.468-.834.701-1.79.701-2.866s-.234-2.031-.7-2.866a4.84 4.84 0 00-1.997-1.94c-.864-.472-1.863-.708-2.995-.708h-3.889v11.028h3.889zM83.275 84.753v.835h-8.46V72.89h8.198v.834h-7.304v5.006h6.533v.817h-6.533v5.205h7.566zM98.127 85.588l-.017-10.865-5.132 9.178h-.438l-5.132-9.142v10.829h-.876V72.89h.753l5.483 9.813 5.482-9.813h.735l.018 12.697h-.876zM107.061 81.216v4.372h-.894v-4.372l-4.939-8.325h.981l4.431 7.473 4.432-7.473H112l-4.939 8.325z" fill="#E1D3C1"/></svg>