<svg width="272" height="67" fill="none" xmlns="http://www.w3.org/2000/svg"><path d="M4.989 30.52c0 .387-.089.753-.247 1.08-.555 1.145-1.624 2.217-1.624 3.489v4.129c0 .78.587 1.423 1.14 1.974.553.551 1.199 1.136 1.981 1.136h4.143c1.276 0 2.352-1.065 3.501-1.618a2.495 2.495 0 011.083-.246 2.49 2.49 0 012.494 2.486 2.49 2.49 0 01-2.494 2.486 2.49 2.49 0 01-1.083-.246c-1.15-.553-2.225-1.619-3.5-1.619H7.077c-1.276 0-2.351 1.066-3.5 1.619a2.49 2.49 0 01-1.084.246A2.49 2.49 0 01.247 41.87c.555-1.145 1.624-2.217 1.624-3.489V35.09c0-1.272-1.07-2.344-1.624-3.49a2.49 2.49 0 012.248-3.565 2.49 2.49 0 012.494 2.486z" fill="#57B535"/><path d="M4.989 30.52c0 .387-.089.753-.247 1.08-.555 1.145-1.624 2.217-1.624 3.489v4.129c0 .78.587 1.423 1.14 1.974.553.551 1.199 1.136 1.981 1.136h4.143c1.276 0 2.352-1.065 3.501-1.618a2.495 2.495 0 011.083-.246 2.49 2.49 0 012.494 2.486 2.49 2.49 0 01-2.494 2.486 2.49 2.49 0 01-1.083-.246c-1.15-.553-2.225-1.619-3.5-1.619H7.077c-1.276 0-2.351 1.066-3.5 1.619a2.49 2.49 0 01-1.084.246A2.49 2.49 0 01.247 41.87c.555-1.145 1.624-2.217 1.624-3.489V35.09c0-1.272-1.07-2.344-1.624-3.49a2.49 2.49 0 012.248-3.565 2.49 2.49 0 012.494 2.486zM30.534 21.52c0-.388.089-.754.247-1.08.555-1.146 1.624-2.218 1.624-3.49v-4.128c0-.78-.587-1.423-1.14-1.975-.553-.551-1.199-1.136-1.981-1.136H25.14c-1.276 0-2.352 1.066-3.501 1.618a2.493 2.493 0 01-1.083.246 2.49 2.49 0 01-2.494-2.486 2.49 2.49 0 012.494-2.485c.388 0 .755.088 1.083.245 1.15.553 2.225 1.619 3.5 1.619h3.305c1.276 0 2.352-1.066 3.5-1.619a2.491 2.491 0 011.084-.245 2.49 2.49 0 012.247 3.565c-.555 1.145-1.624 2.217-1.624 3.489v3.293c0 1.271 1.07 2.343 1.624 3.489a2.49 2.49 0 01-2.248 3.565 2.49 2.49 0 01-2.494-2.486z" fill="#57B535"/><path d="M22.449 37.978c0 .386-.089.753-.247 1.079-.555 1.145-1.624 2.217-1.624 3.49v4.128c0 .78.587 1.423 1.14 1.975.554.55 1.2 1.136 1.982 1.136h4.143c1.276 0 2.351-1.066 3.5-1.619a2.49 2.49 0 011.083-.246 2.49 2.49 0 012.495 2.486 2.49 2.49 0 01-2.495 2.486c-.388 0-.755-.088-1.083-.245-1.149-.554-2.224-1.62-3.5-1.62h-3.304c-1.277 0-2.352 1.066-3.501 1.62a2.495 2.495 0 01-1.083.245 2.49 2.49 0 01-2.248-3.565c.555-1.146 1.624-2.217 1.624-3.489v-3.293c0-1.272-1.07-2.343-1.624-3.489a2.49 2.49 0 012.248-3.565 2.49 2.49 0 012.494 2.486z" fill="#57B535"/><path d="M42.404 42.95c0 .387-.089.752-.247 1.079-.555 1.146-1.624 2.217-1.624 3.49v4.128c0 .78.587 1.423 1.14 1.975.553.55 1.2 1.136 1.981 1.136h4.143c1.277 0 2.352-1.066 3.501-1.618a2.49 2.49 0 011.083-.246 2.49 2.49 0 012.494 2.486 2.49 2.49 0 01-2.494 2.485 2.49 2.49 0 01-1.083-.246c-1.15-.552-2.224-1.618-3.5-1.618h-3.305c-1.276 0-2.351 1.066-3.5 1.618a2.488 2.488 0 01-1.084.246 2.49 2.49 0 01-2.494-2.486c0-.386.089-.753.247-1.079.555-1.145 1.624-2.217 1.624-3.49v-3.292c0-1.272-1.07-2.343-1.624-3.489a2.469 2.469 0 01-.247-1.08 2.49 2.49 0 012.494-2.485 2.49 2.49 0 012.495 2.486z" fill="#5C34FA"/><path d="M62.359 51.37c0 .387-.089.753-.247 1.08-.555 1.144-1.624 2.216-1.624 3.488v4.13c0 .779.587 1.422 1.14 1.973.553.552 1.2 1.137 1.981 1.137h4.143c1.277 0 2.352-1.066 3.501-1.618a2.49 2.49 0 011.083-.247 2.49 2.49 0 012.495 2.486 2.49 2.49 0 01-2.495 2.486 2.49 2.49 0 01-1.083-.246c-1.15-.552-2.224-1.618-3.5-1.618h-3.304c-1.277 0-2.352 1.066-3.501 1.618a2.491 2.491 0 01-1.084.246A2.49 2.49 0 0157.37 63.8c0-.387.089-.753.247-1.08.555-1.145 1.624-2.217 1.624-3.49v-3.292c0-1.272-1.07-2.344-1.624-3.489a2.468 2.468 0 01-.247-1.08 2.49 2.49 0 012.495-2.485 2.49 2.49 0 012.494 2.486z" fill="#4F3F84"/><path d="M19.955 25.548c-.388 0-.756-.088-1.083-.246-1.15-.553-2.225-1.619-3.501-1.619h-4.143c-.782 0-1.428.586-1.981 1.137-.553.551-1.14 1.195-1.14 1.974v4.13c0 1.271 1.069 2.343 1.624 3.488a2.49 2.49 0 01-2.248 3.565 2.49 2.49 0 01-2.248-3.565c.555-1.145 1.624-2.217 1.624-3.489v-3.292c0-1.272-1.069-2.344-1.624-3.49a2.49 2.49 0 012.248-3.565c.388 0 .755.088 1.083.246 1.15.553 2.225 1.619 3.5 1.619h3.305c1.276 0 2.351-1.066 3.5-1.619a2.492 2.492 0 011.084-.246 2.49 2.49 0 012.494 2.486 2.49 2.49 0 01-2.494 2.486z" fill="#57B535"/><path d="M19.955 25.548c-.388 0-.756-.088-1.083-.246-1.15-.553-2.225-1.619-3.501-1.619h-4.143c-.782 0-1.428.586-1.981 1.137-.553.551-1.14 1.195-1.14 1.974v4.13c0 1.271 1.069 2.343 1.624 3.488a2.49 2.49 0 01-2.248 3.565 2.49 2.49 0 01-2.248-3.565c.555-1.145 1.624-2.217 1.624-3.489v-3.292c0-1.272-1.069-2.344-1.624-3.49a2.49 2.49 0 012.248-3.565c.388 0 .755.088 1.083.246 1.15.553 2.225 1.619 3.5 1.619h3.305c1.276 0 2.351-1.066 3.5-1.619a2.492 2.492 0 011.084-.246 2.49 2.49 0 012.494 2.486 2.49 2.49 0 01-2.494 2.486z" fill="#E1D3C1"/><path d="M45.07 11.575a2.49 2.49 0 01-1.082-.245c-1.15-.553-2.225-1.62-3.501-1.62h-4.143c-.783 0-1.428.586-1.982 1.137-.553.552-1.14 1.195-1.14 1.975v4.129c0 1.271 1.07 2.343 1.624 3.489a2.49 2.49 0 01-2.248 3.565 2.49 2.49 0 01-2.247-3.565c.555-1.146 1.624-2.218 1.624-3.49v-3.292c0-1.272-1.07-2.344-1.624-3.49A2.49 2.49 0 0132.6 6.604c.388 0 .755.089 1.083.246 1.149.553 2.224 1.619 3.5 1.619h3.305c1.276 0 2.351-1.066 3.5-1.619a2.49 2.49 0 011.083-.245 2.49 2.49 0 012.495 2.485 2.49 2.49 0 01-2.495 2.486z" fill="#57B535"/><path d="M75.796 48.884c.388 0 .755.088 1.083.246 1.15.553 2.225 1.618 3.5 1.618h4.144c.782 0 1.428-.585 1.98-1.136.554-.551 1.141-1.195 1.141-1.974v-4.13c0-1.271-1.07-2.343-1.624-3.488a2.49 2.49 0 012.248-3.565 2.49 2.49 0 012.494 2.485c0 .387-.088.753-.247 1.08-.554 1.145-1.624 2.217-1.624 3.489V46.8c0 1.272 1.07 2.344 1.624 3.49.159.326.247.692.247 1.079a2.49 2.49 0 01-2.494 2.486 2.49 2.49 0 01-1.083-.246c-1.15-.553-2.225-1.619-3.501-1.619H80.38c-1.276 0-2.352 1.066-3.501 1.619a2.49 2.49 0 01-1.083.245A2.49 2.49 0 0173.3 51.37a2.49 2.49 0 012.495-2.486z" fill="#4F3F84"/><path d="M28.893 18.298c0 .483-.128.936-.352 1.328-.63 1.106-1.675 2.169-1.675 3.44v4.654c0 .844.636 1.542 1.235 2.139.6.597 1.299 1.23 2.146 1.23h4.67c1.275 0 2.342-1.04 3.451-1.669.394-.223.849-.35 1.334-.35a2.698 2.698 0 012.702 2.693 2.698 2.698 0 01-2.703 2.693c-.484 0-.94-.127-1.333-.35-1.11-.628-2.176-1.67-3.452-1.67h-3.94c-1.276 0-2.343 1.042-3.452 1.67-.394.223-.849.35-1.334.35a2.698 2.698 0 01-2.702-2.693c0-.483.128-.937.352-1.329.63-1.105 1.675-2.168 1.675-3.44v-3.927c0-1.272-1.045-2.335-1.675-3.44a2.673 2.673 0 01-.352-1.33 2.698 2.698 0 012.703-2.693 2.698 2.698 0 012.702 2.694z" fill="#57B535"/><path d="M23.489 45.229c0-.484.127-.937.35-1.329.631-1.106 1.676-2.169 1.676-3.44v-4.654c0-.844-.636-1.541-1.235-2.139-.6-.597-1.299-1.23-2.146-1.23h-4.669c-1.276 0-2.342 1.04-3.452 1.67-.393.222-.848.35-1.333.35a2.698 2.698 0 01-2.702-2.694 2.698 2.698 0 012.702-2.693c.485 0 .94.127 1.333.35 1.11.628 2.176 1.67 3.452 1.67h3.94c1.277 0 2.343-1.041 3.453-1.67.393-.223.848-.35 1.333-.35a2.698 2.698 0 012.702 2.693c0 .483-.128.937-.351 1.329-.63 1.106-1.676 2.168-1.676 3.44v3.928c0 1.271 1.045 2.334 1.676 3.44.223.392.351.845.351 1.329a2.698 2.698 0 01-2.702 2.693 2.698 2.698 0 01-2.702-2.693z" fill="#57B535"/><path d="M39.702 34.456c-.485 0-.94-.127-1.334-.35-1.11-.628-2.175-1.67-3.452-1.67h-4.669c-.847 0-1.546.634-2.146 1.231-.599.598-1.235 1.295-1.235 2.14v4.652c0 1.272 1.045 2.335 1.675 3.441.224.392.352.845.352 1.328a2.698 2.698 0 01-2.703 2.694 2.698 2.698 0 01-2.702-2.694c0-.483.128-.936.352-1.328.63-1.106 1.675-2.169 1.675-3.44v-3.928c0-1.272-1.045-2.334-1.675-3.44a2.673 2.673 0 01-.352-1.329 2.698 2.698 0 012.703-2.693c.484 0 .94.127 1.333.35 1.11.628 2.176 1.67 3.452 1.67h3.94c1.277 0 2.343-1.041 3.452-1.67.394-.223.849-.35 1.334-.35a2.698 2.698 0 012.702 2.693 2.698 2.698 0 01-2.703 2.693z" fill="#57B535"/><path d="M48.848 23.27c0 .482-.128.936-.352 1.328-.63 1.106-1.675 2.168-1.675 3.44v4.653c0 .845.636 1.542 1.235 2.14.6.597 1.3 1.23 2.147 1.23h4.668c1.276 0 2.343-1.04 3.452-1.67.394-.222.849-.35 1.334-.35a2.698 2.698 0 012.702 2.694 2.698 2.698 0 01-2.702 2.693c-.485 0-.94-.127-1.334-.35-1.11-.629-2.175-1.67-3.452-1.67h-3.94c-1.276 0-2.343 1.041-3.452 1.67-.394.222-.848.35-1.334.35a2.698 2.698 0 01-2.702-2.693c0-.483.128-.937.352-1.329.63-1.106 1.675-2.169 1.675-3.44v-3.928c0-1.272-1.045-2.334-1.675-3.44a2.675 2.675 0 01-.352-1.329 2.698 2.698 0 012.703-2.693 2.698 2.698 0 012.702 2.693z" fill="#5C34FA"/><path d="M43.443 50.2c0-.483.128-.936.351-1.329.63-1.105 1.676-2.168 1.676-3.44v-4.653c0-.845-.636-1.542-1.235-2.139-.6-.597-1.3-1.23-2.147-1.23H37.42c-1.277 0-2.343 1.04-3.452 1.669-.394.223-.849.35-1.334.35a2.698 2.698 0 01-2.702-2.693 2.698 2.698 0 012.702-2.693c.485 0 .94.127 1.334.35 1.109.628 2.175 1.67 3.452 1.67h3.94c1.276 0 2.343-1.042 3.452-1.67.394-.223.849-.35 1.333-.35a2.698 2.698 0 012.702 2.693c0 .483-.127.937-.35 1.329-.631 1.105-1.676 2.168-1.676 3.44v3.927c0 1.272 1.045 2.335 1.675 3.44.224.393.351.846.351 1.33a2.698 2.698 0 01-2.702 2.692 2.698 2.698 0 01-2.702-2.693z" fill="#5C34FA"/><path d="M59.657 39.428c-.485 0-.94-.127-1.334-.35-1.11-.629-2.175-1.67-3.452-1.67h-4.668c-.848 0-1.547.634-2.147 1.231-.599.597-1.235 1.294-1.235 2.139v4.653c0 1.272 1.045 2.335 1.675 3.44.224.393.352.846.352 1.33a2.698 2.698 0 01-2.703 2.692 2.698 2.698 0 01-2.702-2.693c0-.483.128-.936.352-1.329.63-1.105 1.675-2.168 1.675-3.44v-3.927c0-1.272-1.045-2.335-1.675-3.44a2.676 2.676 0 01-.352-1.33 2.698 2.698 0 012.703-2.692c.485 0 .94.127 1.333.35 1.11.628 2.176 1.67 3.452 1.67h3.94c1.276 0 2.343-1.042 3.452-1.67.394-.223.849-.35 1.334-.35a2.698 2.698 0 012.702 2.693 2.698 2.698 0 01-2.702 2.693z" fill="#5C34FA"/><path d="M68.802 31.69c0 .482-.127.936-.35 1.328-.631 1.106-1.676 2.169-1.676 3.44v4.654c0 .844.636 1.541 1.235 2.138.6.598 1.299 1.231 2.146 1.231h4.669c1.276 0 2.343-1.041 3.452-1.67a2.7 2.7 0 011.333-.35 2.698 2.698 0 012.703 2.694 2.698 2.698 0 01-2.703 2.693c-.485 0-.94-.127-1.333-.35-1.11-.629-2.176-1.67-3.452-1.67h-3.94c-1.277 0-2.343 1.041-3.453 1.67-.393.223-.848.35-1.333.35a2.698 2.698 0 01-2.702-2.693c0-.483.128-.937.351-1.33.63-1.105 1.675-2.167 1.675-3.44v-3.927c0-1.271-1.044-2.334-1.675-3.44a2.676 2.676 0 01-.351-1.329 2.698 2.698 0 012.702-2.693 2.698 2.698 0 012.702 2.693z" fill="#4F3F84"/><path d="M63.398 58.62c0-.483.128-.936.351-1.328.63-1.106 1.676-2.169 1.676-3.44v-4.654c0-.844-.636-1.542-1.235-2.139-.6-.597-1.299-1.23-2.147-1.23h-4.669c-1.276 0-2.342 1.04-3.452 1.669-.393.223-.848.35-1.333.35a2.698 2.698 0 01-2.702-2.693 2.698 2.698 0 012.702-2.693c.485 0 .94.127 1.333.35 1.11.628 2.176 1.67 3.452 1.67h3.941c1.276 0 2.342-1.042 3.452-1.67a2.7 2.7 0 011.333-.35 2.698 2.698 0 012.702 2.693c0 .483-.127.936-.35 1.329-.631 1.105-1.676 2.168-1.676 3.44v3.927c0 1.272 1.045 2.335 1.675 3.44.224.393.351.846.351 1.33a2.698 2.698 0 01-2.702 2.692 2.698 2.698 0 01-2.702-2.693z" fill="#4F3F84"/><path d="M79.611 47.848c-.485 0-.94-.127-1.333-.35-1.11-.628-2.176-1.67-3.452-1.67h-4.669c-.847 0-1.547.634-2.146 1.231-.6.597-1.235 1.295-1.235 2.14v4.652c0 1.272 1.045 2.335 1.675 3.44.224.393.351.846.351 1.33a2.698 2.698 0 01-2.702 2.692 2.698 2.698 0 01-2.702-2.693c0-.483.128-.936.351-1.328.63-1.106 1.675-2.169 1.675-3.44v-3.928c0-1.272-1.044-2.335-1.675-3.44a2.676 2.676 0 01-.351-1.33 2.698 2.698 0 012.702-2.692 2.7 2.7 0 011.333.35c1.11.628 2.176 1.67 3.452 1.67h3.94c1.277 0 2.343-1.042 3.453-1.67a2.7 2.7 0 011.333-.35 2.698 2.698 0 012.703 2.693 2.698 2.698 0 01-2.703 2.693z" fill="#4F3F84"/><path d="M76.113 9.297c0 .483-.127.936-.35 1.328-.631 1.106-1.676 2.169-1.676 3.44v4.654c0 .844.636 1.541 1.235 2.139.6.597 1.299 1.23 2.146 1.23h4.67c1.275 0 2.342-1.04 3.451-1.669.394-.223.848-.35 1.334-.35a2.698 2.698 0 012.702 2.693 2.698 2.698 0 01-2.703 2.693c-.485 0-.94-.127-1.333-.35-1.11-.628-2.176-1.67-3.452-1.67h-3.94c-1.276 0-2.343 1.042-3.452 1.67-.394.223-.849.35-1.334.35a2.698 2.698 0 01-2.702-2.693c0-.483.128-.937.351-1.329.63-1.105 1.676-2.168 1.676-3.44v-3.927c0-1.272-1.045-2.335-1.676-3.44a2.676 2.676 0 01-.35-1.33 2.698 2.698 0 012.701-2.692 2.698 2.698 0 012.702 2.693z" fill="#5C34FA"/><path d="M70.71 36.228c0-.483.127-.937.35-1.329.63-1.106 1.676-2.169 1.676-3.44v-4.654c0-.844-.636-1.541-1.235-2.139-.6-.597-1.299-1.23-2.147-1.23h-4.668c-1.277 0-2.343 1.04-3.453 1.67-.393.222-.848.35-1.333.35a2.698 2.698 0 01-2.702-2.694A2.698 2.698 0 0159.9 20.07c.485 0 .94.127 1.333.35 1.11.629 2.176 1.67 3.453 1.67h3.94c1.276 0 2.343-1.041 3.452-1.67.394-.223.849-.35 1.333-.35a2.698 2.698 0 012.702 2.693c0 .483-.127.937-.35 1.329-.631 1.106-1.676 2.168-1.676 3.44v3.928c0 1.271 1.045 2.334 1.675 3.44.224.392.351.846.351 1.329a2.698 2.698 0 01-2.702 2.693 2.698 2.698 0 01-2.702-2.693z" fill="#5C34FA"/><path d="M86.922 25.455c-.485 0-.94-.127-1.333-.35-1.11-.628-2.176-1.67-3.452-1.67h-4.669c-.847 0-1.547.634-2.146 1.232-.599.597-1.235 1.294-1.235 2.138v4.654c0 1.271 1.045 2.334 1.675 3.44.224.392.351.846.351 1.329a2.698 2.698 0 01-2.702 2.693 2.698 2.698 0 01-2.702-2.693c0-.483.128-.937.351-1.329.63-1.106 1.676-2.169 1.676-3.44V27.53c0-1.271-1.045-2.334-1.676-3.44a2.677 2.677 0 01-.35-1.329 2.698 2.698 0 012.701-2.693c.485 0 .94.127 1.334.35 1.11.629 2.175 1.67 3.452 1.67h3.94c1.276 0 2.343-1.041 3.452-1.67.394-.223.848-.35 1.334-.35a2.698 2.698 0 012.702 2.693 2.698 2.698 0 01-2.703 2.693z" fill="#5C34FA"/><path d="M55.04 3.296c0 .483-.127.937-.35 1.329-.631 1.106-1.676 2.169-1.676 3.44v4.654c0 .844.636 1.541 1.235 2.139.6.597 1.298 1.23 2.146 1.23h4.67c1.275 0 2.342-1.04 3.45-1.67.394-.222.85-.35 1.334-.35a2.698 2.698 0 012.702 2.694 2.698 2.698 0 01-2.702 2.693c-.485 0-.94-.127-1.333-.35-1.11-.629-2.176-1.67-3.452-1.67h-3.94c-1.277 0-2.343 1.041-3.453 1.67-.393.223-.848.35-1.333.35a2.698 2.698 0 01-2.702-2.693c0-.483.128-.937.351-1.329.63-1.106 1.676-2.168 1.676-3.44V8.065c0-1.271-1.045-2.334-1.676-3.44a2.672 2.672 0 01-.35-1.329A2.698 2.698 0 0152.337.603a2.698 2.698 0 012.702 2.693z" fill="#0FBDE9"/><path d="M49.636 30.227c0-.483.127-.937.351-1.329.63-1.106 1.676-2.168 1.676-3.44v-4.653c0-.845-.636-1.542-1.236-2.14-.599-.596-1.298-1.23-2.146-1.23h-4.669c-1.276 0-2.342 1.041-3.452 1.67-.393.222-.848.35-1.333.35a2.698 2.698 0 01-2.702-2.694 2.698 2.698 0 012.702-2.693c.485 0 .94.128 1.333.35 1.11.629 2.176 1.67 3.453 1.67h3.94c1.276 0 2.342-1.041 3.452-1.67.393-.222.848-.35 1.333-.35a2.698 2.698 0 012.702 2.693c0 .484-.127.937-.35 1.33-.631 1.105-1.676 2.168-1.676 3.44v3.927c0 1.272 1.045 2.334 1.675 3.44.224.392.351.846.351 1.329a2.698 2.698 0 01-2.702 2.693 2.697 2.697 0 01-2.702-2.693z" fill="#0FBDE9"/><path d="M65.85 19.455c-.486 0-.94-.128-1.334-.35-1.11-.629-2.176-1.67-3.452-1.67h-4.67c-.846 0-1.546.634-2.145 1.23-.6.598-1.236 1.295-1.236 2.14v4.653c0 1.272 1.046 2.335 1.676 3.44.224.392.351.846.351 1.329a2.698 2.698 0 01-2.702 2.693 2.698 2.698 0 01-2.702-2.693c0-.483.128-.937.351-1.329.63-1.105 1.676-2.168 1.676-3.44V21.53c0-1.272-1.045-2.335-1.676-3.44a2.673 2.673 0 01-.35-1.33 2.698 2.698 0 012.701-2.693c.485 0 .94.128 1.333.35 1.11.629 2.176 1.67 3.452 1.67h3.941c1.276 0 2.343-1.041 3.452-1.67.393-.222.848-.35 1.333-.35a2.698 2.698 0 012.702 2.694 2.698 2.698 0 01-2.702 2.693z" fill="#0FBDE9"/><path d="M83.207 65.124a4.317 4.317 0 004.324-4.31c0-2.38-1.936-4.31-4.324-4.31a4.317 4.317 0 00-4.325 4.31c0 2.38 1.936 4.31 4.325 4.31z" fill="#E1D3C1"/><path d="M80.765 17.576a2.49 2.49 0 002.495-2.486 2.49 2.49 0 00-2.495-2.486 2.49 2.49 0 00-2.494 2.486 2.49 2.49 0 002.494 2.486z" fill="#0FBDE9"/><path d="M59.692 11.575a2.49 2.49 0 002.495-2.486 2.49 2.49 0 00-2.495-2.485 2.49 2.49 0 00-2.494 2.485 2.49 2.49 0 002.494 2.486z" fill="#57B535"/><path d="M59.692 11.575a2.49 2.49 0 002.495-2.486 2.49 2.49 0 00-2.495-2.485 2.49 2.49 0 00-2.494 2.485 2.49 2.49 0 002.494 2.486z" fill="#0FBDE9"/><path d="M92.883 31.41a2.494 2.494 0 00-2.499-2.49c-.669 0-1.276.261-1.724.687l-.095.076c-.672.538-1.385 1.11-2.226 1.11h-4.373c-.841 0-1.554-.572-2.226-1.11-.097-.077-.192-.154-.288-.228a2.488 2.488 0 00-1.535-.527 2.49 2.49 0 00-2.495 2.486 2.49 2.49 0 002.495 2.486c.579 0 1.112-.197 1.535-.527.096-.074.191-.15.288-.228.672-.539 1.385-1.11 2.226-1.11h4.373c.84 0 1.554.572 2.226 1.11.056.045.112.09.168.133.44.387 1.018.622 1.651.622a2.496 2.496 0 002.499-2.49z" fill="#5C34FA"/><path d="M14.54 17.585a2.494 2.494 0 002.499-2.49 2.494 2.494 0 00-2.499-2.49 2.495 2.495 0 00-2.498 2.49 2.494 2.494 0 002.498 2.49z" fill="#E1D3C1"/><path d="M39.444 4.98a2.494 2.494 0 002.499-2.49A2.494 2.494 0 0039.444 0a2.494 2.494 0 00-2.499 2.49 2.494 2.494 0 002.499 2.49z" fill="#57B535"/><path d="M110.598 18.552h1.287v17.69h-1.287v-17.69zM135.508 37.606a5.185 5.185 0 01-1.842 1.491 5.328 5.328 0 01-2.322.505c-.976 0-1.927-.252-2.852-.758-.909-.505-1.91-1.33-3.004-2.476-1.733 0-3.298-.388-4.695-1.163a8.7 8.7 0 01-3.256-3.234c-.791-1.365-1.186-2.89-1.186-4.575 0-1.684.395-3.209 1.186-4.574a8.65 8.65 0 013.307-3.21c1.396-.79 2.961-1.187 4.694-1.187 1.734 0 3.299.388 4.695 1.163a8.459 8.459 0 013.281 3.21c.808 1.364 1.212 2.897 1.212 4.598 0 1.517-.328 2.907-.984 4.17a8.661 8.661 0 01-2.676 3.109c-1.144.808-2.448 1.33-3.912 1.566 1.447 1.517 2.844 2.275 4.19 2.275 1.363 0 2.524-.565 3.483-1.693l.681.783zm-17.87-10.21c0 1.45.345 2.772 1.035 3.968a7.657 7.657 0 002.827 2.805c1.211.674 2.558 1.011 4.038 1.011 1.481 0 2.819-.337 4.014-1.01a7.665 7.665 0 002.827-2.806c.69-1.196 1.035-2.519 1.035-3.968 0-1.448-.345-2.762-1.035-3.942a7.421 7.421 0 00-2.827-2.805c-1.195-.69-2.533-1.036-4.014-1.036-1.48 0-2.827.345-4.038 1.036a7.414 7.414 0 00-2.827 2.805c-.69 1.18-1.035 2.494-1.035 3.942zM138.143 36.342c-.286 0-.539-.1-.758-.303a1.115 1.115 0 01-.302-.783c0-.303.1-.556.302-.758.219-.203.472-.304.758-.304.286 0 .53.101.732.304a.992.992 0 01.328.758c0 .303-.11.564-.328.783a.997.997 0 01-.732.303zM155.543 31.263h-10.248l-2.246 4.978h-1.388l8.127-17.69h1.287l8.128 17.69h-1.388l-2.272-4.978zm-.48-1.087l-4.644-10.21-4.619 10.21h9.263zM169.635 36.368c-1.733 0-3.298-.388-4.694-1.163a8.704 8.704 0 01-3.282-3.21c-.791-1.364-1.186-2.897-1.186-4.599 0-1.701.395-3.234 1.186-4.599a8.704 8.704 0 013.282-3.21c1.396-.774 2.961-1.162 4.694-1.162 1.279 0 2.457.21 3.534.632a7.153 7.153 0 012.751 1.82l-.807.833c-1.414-1.398-3.223-2.097-5.427-2.097-1.481 0-2.827.337-4.039 1.01a7.369 7.369 0 00-2.852 2.806c-.69 1.18-1.035 2.502-1.035 3.967 0 1.466.345 2.797 1.035 3.993a7.423 7.423 0 002.852 2.78c1.212.674 2.558 1.011 4.039 1.011 2.187 0 3.996-.708 5.427-2.123l.807.834c-.757.809-1.682 1.424-2.776 1.845-1.077.421-2.247.632-3.509.632zM190.693 31.263h-10.248l-2.246 4.978h-1.389l8.128-17.69h1.287l8.128 17.69h-1.388l-2.272-4.978zm-.48-1.087l-4.644-10.21-4.619 10.21h9.263zM197.56 18.552h6.992c1.834 0 3.458.379 4.872 1.137 1.43.758 2.54 1.81 3.331 3.159.791 1.33 1.187 2.847 1.187 4.548 0 1.702-.396 3.227-1.187 4.575-.791 1.33-1.901 2.375-3.331 3.133-1.414.758-3.038 1.137-4.872 1.137h-6.992v-17.69zm6.891 16.527c1.632 0 3.071-.32 4.316-.96 1.246-.657 2.205-1.567 2.878-2.73.673-1.162 1.009-2.493 1.009-3.993 0-1.499-.336-2.83-1.009-3.992-.673-1.163-1.632-2.064-2.878-2.704-1.245-.657-2.684-.986-4.316-.986h-5.603v15.365h5.603zM230.605 35.079v1.162h-12.191v-17.69h11.812v1.163h-10.525v6.975h9.415v1.137h-9.415v7.253h10.904zM252.008 36.241l-.025-15.137-7.396 12.787h-.631l-7.396-12.736V36.24h-1.262v-17.69h1.086l7.9 13.672 7.901-13.671h1.06l.025 17.69h-1.262zM264.882 30.151v6.09h-1.287v-6.09l-7.118-11.6h1.413l6.386 10.412 6.386-10.412H272l-7.118 11.6zM110.245 45.718h.537v6.886h4.238v.485h-4.775v-7.371zM120.775 50.467h-4.722c.014.428.122.81.326 1.148.203.33.476.586.82.768.351.183.743.274 1.178.274.358 0 .687-.063.989-.19.308-.133.564-.326.767-.579l.305.348c-.238.288-.54.509-.904.663a2.917 2.917 0 01-1.168.232c-.546 0-1.034-.12-1.461-.358a2.628 2.628 0 01-1.01-.99 2.881 2.881 0 01-.358-1.442c0-.534.113-1.011.337-1.433.231-.428.547-.761.946-1 .4-.239.849-.358 1.347-.358.497 0 .943.12 1.335.358.4.232.712.558.936.98.232.42.347.898.347 1.431l-.01.148zm-2.608-2.453c-.386 0-.733.087-1.042.263a1.95 1.95 0 00-.746.726c-.183.31-.288.66-.316 1.053h4.207a2.21 2.21 0 00-.315-1.053 2.067 2.067 0 00-.747-.726 2.07 2.07 0 00-1.041-.264zM124.109 47.55c.68 0 1.202.176 1.567.527.365.344.547.853.547 1.526v3.486h-.505v-.98a1.856 1.856 0 01-.768.759c-.336.175-.739.263-1.209.263-.61 0-1.094-.144-1.451-.432-.351-.288-.526-.667-.526-1.137 0-.456.161-.825.484-1.106.329-.287.851-.431 1.567-.431h1.882v-.443c0-.512-.14-.902-.421-1.168-.273-.267-.676-.4-1.209-.4a2.97 2.97 0 00-1.052.189c-.329.126-.61.295-.841.505l-.263-.379a2.85 2.85 0 01.989-.568c.385-.14.788-.21 1.209-.21zm-.294 5.15c.455 0 .841-.106 1.156-.317.323-.21.565-.516.726-.916v-1.032h-1.872c-.54 0-.932.099-1.178.295-.238.197-.357.467-.357.81 0 .359.133.643.399.854.267.203.642.305 1.126.305zM128.894 48.793c.169-.4.432-.706.789-.916.358-.218.792-.327 1.304-.327v.516l-.126-.01c-.61 0-1.087.193-1.43.579-.344.379-.516.909-.516 1.59v2.864h-.525v-5.497h.504v1.2zM135.118 47.55c.687 0 1.23.2 1.63.6.4.4.6.976.6 1.727v3.212h-.526v-3.17c0-.617-.158-1.088-.474-1.41-.308-.324-.743-.485-1.304-.485-.645 0-1.153.193-1.525.58-.371.385-.557.905-.557 1.558v2.927h-.526v-5.497h.505v1.19a2.1 2.1 0 01.841-.905c.379-.218.824-.327 1.336-.327zM139.513 47.592h.525v5.497h-.525v-5.497zm.262-1.337a.437.437 0 01-.305-.116.416.416 0 01-.126-.305c0-.12.042-.221.126-.306a.417.417 0 01.305-.126c.12 0 .221.042.305.127a.38.38 0 01.127.294c0 .12-.042.221-.127.306a.414.414 0 01-.305.126zM144.937 47.55c.687 0 1.23.2 1.63.6.399.4.599.976.599 1.727v3.212h-.526v-3.17c0-.617-.157-1.088-.473-1.41-.308-.324-.743-.485-1.304-.485-.645 0-1.153.193-1.525.58-.372.385-.557.905-.557 1.558v2.927h-.526v-5.497h.505v1.19c.189-.386.469-.688.841-.905.379-.218.824-.327 1.336-.327zM154.284 47.592V52.5c0 .913-.22 1.587-.662 2.022-.442.435-1.108.653-1.998.653-.505 0-.982-.078-1.431-.232-.448-.154-.81-.368-1.083-.642l.284-.4c.273.252.603.449.989.59.385.14.795.21 1.23.21.729 0 1.269-.176 1.62-.527.35-.344.526-.88.526-1.61v-.927a2.34 2.34 0 01-.936.926c-.4.218-.849.327-1.347.327a2.92 2.92 0 01-1.398-.337 2.562 2.562 0 01-.978-.958 2.673 2.673 0 01-.358-1.38c0-.512.119-.972.358-1.38.238-.406.564-.722.978-.947.42-.224.887-.337 1.398-.337.505 0 .961.113 1.368.337.406.225.718.54.936.948v-1.243h.504zm-2.766 4.823c.428 0 .814-.091 1.157-.274.344-.19.61-.45.8-.78a2.24 2.24 0 00.294-1.147c0-.428-.098-.807-.294-1.137a1.967 1.967 0 00-.8-.769 2.353 2.353 0 00-1.157-.284c-.427 0-.813.095-1.156.284a2.057 2.057 0 00-.8.769c-.189.33-.284.709-.284 1.137 0 .428.095.811.284 1.148.197.33.463.59.8.78.343.182.729.273 1.156.273zM166.342 53.089l-.011-6.307-3.081 5.328h-.263l-3.081-5.307v6.286h-.526v-7.371h.452l3.292 5.697 3.292-5.697h.441l.011 7.37h-.526zM171.117 47.55c.68 0 1.203.176 1.567.527.365.344.547.853.547 1.526v3.486h-.505v-.98a1.86 1.86 0 01-.767.759c-.337.175-.74.263-1.21.263-.61 0-1.094-.144-1.451-.432-.351-.288-.526-.667-.526-1.137 0-.456.161-.825.484-1.106.329-.287.852-.431 1.567-.431h1.882v-.443c0-.512-.14-.902-.42-1.168-.274-.267-.677-.4-1.21-.4-.364 0-.715.063-1.052.189-.329.126-.61.295-.841.505l-.263-.379c.274-.245.603-.435.989-.568.385-.14.789-.21 1.209-.21zm-.294 5.15c.456 0 .841-.106 1.157-.317a1.91 1.91 0 00.725-.916v-1.032h-1.872c-.54 0-.932.099-1.178.295-.238.197-.357.467-.357.81 0 .359.133.643.399.854.267.203.642.305 1.126.305zM178.08 47.55c.687 0 1.23.2 1.63.6.399.4.599.976.599 1.727v3.212h-.526v-3.17c0-.617-.157-1.088-.473-1.41-.308-.324-.743-.485-1.304-.485-.645 0-1.153.193-1.525.58-.372.385-.557.905-.557 1.558v2.927h-.526v-5.497h.505v1.19c.189-.386.469-.688.841-.905.379-.218.824-.327 1.336-.327zM184.325 47.55c.68 0 1.203.176 1.567.527.365.344.547.853.547 1.526v3.486h-.505v-.98a1.86 1.86 0 01-.767.759c-.337.175-.74.263-1.21.263-.61 0-1.094-.144-1.451-.432-.351-.288-.526-.667-.526-1.137 0-.456.161-.825.484-1.106.329-.287.852-.431 1.567-.431h1.882v-.443c0-.512-.14-.902-.42-1.168-.274-.267-.677-.4-1.21-.4a2.97 2.97 0 00-1.052.189c-.329.126-.61.295-.841.505l-.263-.379c.274-.245.603-.435.989-.568.385-.14.788-.21 1.209-.21zm-.294 5.15c.455 0 .841-.106 1.157-.317a1.91 1.91 0 00.725-.916v-1.032h-1.872c-.54 0-.932.099-1.178.295-.238.197-.357.467-.357.81 0 .359.133.643.399.854.267.203.642.305 1.126.305zM193.559 47.592V52.5c0 .913-.221 1.587-.663 2.022-.441.435-1.107.653-1.998.653-.505 0-.981-.078-1.43-.232-.449-.154-.81-.368-1.083-.642l.284-.4c.273.252.602.449.988.59.386.14.796.21 1.231.21.729 0 1.269-.176 1.619-.527.351-.344.526-.88.526-1.61v-.927c-.224.4-.536.709-.936.926-.4.218-.848.327-1.346.327-.512 0-.978-.113-1.399-.337a2.562 2.562 0 01-.978-.958 2.683 2.683 0 01-.358-1.38c0-.512.12-.972.358-1.38.238-.406.564-.722.978-.947a2.923 2.923 0 011.399-.337c.505 0 .96.113 1.367.337.407.225.719.54.936.948v-1.243h.505zm-2.766 4.823c.428 0 .813-.091 1.157-.274.343-.19.61-.45.799-.78a2.24 2.24 0 00.295-1.147c0-.428-.099-.807-.295-1.137a1.964 1.964 0 00-.799-.769 2.356 2.356 0 00-1.157-.284c-.428 0-.813.095-1.157.284a2.055 2.055 0 00-.799.769c-.19.33-.284.709-.284 1.137 0 .428.094.811.284 1.148.196.33.463.59.799.78.344.182.729.273 1.157.273zM200.423 50.467h-4.722c.014.428.122.81.326 1.148.203.33.476.586.82.768.351.183.743.274 1.178.274.357 0 .687-.063.988-.19.309-.133.565-.326.768-.579l.305.348c-.238.288-.54.509-.904.663a2.917 2.917 0 01-1.168.232 2.95 2.95 0 01-1.462-.358 2.632 2.632 0 01-1.009-.99 2.87 2.87 0 01-.358-1.442c0-.534.112-1.011.337-1.433.231-.428.547-.761.946-1 .4-.239.849-.358 1.347-.358.497 0 .943.12 1.335.358.4.232.712.558.936.98.232.42.347.898.347 1.431l-.01.148zm-2.608-2.453c-.386 0-.733.087-1.042.263a1.95 1.95 0 00-.746.726c-.183.31-.288.66-.316 1.053h4.207a2.2 2.2 0 00-.316-1.053 2.056 2.056 0 00-.746-.726 2.07 2.07 0 00-1.041-.264zM208.896 47.55c.68 0 1.213.2 1.599.6.392.4.589.976.589 1.727v3.212h-.526v-3.17c0-.617-.151-1.088-.452-1.41-.302-.324-.723-.485-1.262-.485-.617 0-1.108.193-1.473.58-.357.385-.536.905-.536 1.558v2.927h-.526v-3.17c0-.617-.151-1.088-.452-1.41-.302-.324-.722-.485-1.262-.485-.617 0-1.108.193-1.473.58-.357.385-.536.905-.536 1.558v2.927h-.526v-5.497h.505v1.18c.182-.386.452-.685.81-.895.364-.218.795-.327 1.293-.327.498 0 .919.113 1.262.337.351.225.6.555.747.99.182-.407.466-.73.852-.969.393-.239.848-.358 1.367-.358zM217.903 50.467h-4.722c.014.428.123.81.326 1.148.203.33.477.586.82.768.351.183.744.274 1.178.274.358 0 .687-.063.989-.19.308-.133.564-.326.768-.579l.305.348a2.34 2.34 0 01-.905.663 2.912 2.912 0 01-1.167.232 2.95 2.95 0 01-1.462-.358 2.635 2.635 0 01-1.01-.99 2.88 2.88 0 01-.357-1.442c0-.534.112-1.011.336-1.433.232-.428.547-.761.947-1a2.572 2.572 0 011.346-.358c.498 0 .943.12 1.336.358.399.232.711.558.936.98.231.42.347.898.347 1.431l-.011.148zm-2.608-2.453c-.386 0-.733.087-1.041.263-.309.168-.558.41-.747.726-.182.31-.287.66-.315 1.053h4.206a2.21 2.21 0 00-.315-1.053 2.051 2.051 0 00-.747-.726 2.065 2.065 0 00-1.041-.264zM222.222 47.55c.687 0 1.231.2 1.63.6.4.4.6.976.6 1.727v3.212h-.526v-3.17c0-.617-.158-1.088-.473-1.41-.309-.324-.743-.485-1.304-.485-.645 0-1.154.193-1.525.58-.372.385-.558.905-.558 1.558v2.927h-.526v-5.497h.505v1.19c.19-.386.47-.688.842-.905.378-.218.823-.327 1.335-.327zM229.341 52.741a1.373 1.373 0 01-.505.295 2.014 2.014 0 01-.621.095c-.476 0-.844-.13-1.104-.39-.259-.266-.389-.635-.389-1.105v-3.59h-1.01v-.454h1.01v-1.2h.526v1.2h1.746v.453h-1.746v3.538c0 .358.084.632.252.821.176.183.432.274.768.274.344 0 .628-.102.852-.305l.221.368zM235.612 53.142a4.4 4.4 0 01-1.546-.274c-.484-.19-.863-.432-1.136-.727l.242-.4c.259.274.606.498 1.041.674.442.168.905.253 1.388.253.701 0 1.231-.134 1.588-.4.358-.267.537-.615.537-1.043 0-.33-.095-.593-.284-.79a1.88 1.88 0 00-.705-.452 9.65 9.65 0 00-1.136-.327c-.54-.133-.974-.263-1.304-.39a2.156 2.156 0 01-.831-.579c-.224-.266-.336-.62-.336-1.063 0-.358.094-.684.284-.98.189-.301.477-.54.862-.715.393-.176.88-.264 1.462-.264.407 0 .806.06 1.199.18.393.119.733.28 1.02.484l-.2.431a3.38 3.38 0 00-.978-.463 3.6 3.6 0 00-1.041-.158c-.68 0-1.195.137-1.546.41a1.287 1.287 0 00-.526 1.064c0 .33.095.594.284.79.189.197.424.348.705.453.28.105.662.218 1.146.337.54.133.971.263 1.294.39.322.126.596.319.82.579.231.252.347.596.347 1.032 0 .357-.098.684-.294.979-.19.295-.484.53-.884.705-.399.176-.89.264-1.472.264zM244.221 47.592l-2.818 6.244c-.211.485-.456.829-.737 1.032a1.59 1.59 0 01-.978.306 2.02 2.02 0 01-.715-.127 1.518 1.518 0 01-.557-.368l.263-.4c.28.287.62.431 1.02.431.266 0 .494-.073.683-.22.19-.148.365-.4.526-.759l.295-.663-2.472-5.476h.558l2.198 4.918 2.198-4.918h.536zM246.697 53.13c-.441 0-.862-.066-1.262-.2-.399-.133-.711-.301-.936-.505l.242-.42c.225.189.512.347.863.473.357.126.729.19 1.115.19.553 0 .96-.092 1.219-.274a.868.868 0 00.4-.758c0-.232-.073-.415-.221-.548a1.28 1.28 0 00-.526-.295 9.02 9.02 0 00-.872-.2 7.269 7.269 0 01-1.052-.252 1.65 1.65 0 01-.684-.443c-.189-.203-.284-.484-.284-.842 0-.435.179-.793.537-1.074.364-.288.88-.432 1.546-.432.35 0 .697.05 1.041.148.343.098.624.228.841.39l-.242.42a2.509 2.509 0 00-.767-.368 3.127 3.127 0 00-.884-.127c-.512 0-.897.095-1.157.285a.884.884 0 00-.389.747c0 .246.074.44.221.58.147.133.326.235.536.305.218.063.519.133.905.21.427.078.771.162 1.03.253.267.084.491.225.674.421.182.197.273.467.273.811 0 .456-.189.822-.568 1.095-.379.274-.911.41-1.599.41zM253.055 52.741a1.369 1.369 0 01-.504.295 2.023 2.023 0 01-.621.095c-.477 0-.845-.13-1.104-.39-.26-.266-.389-.635-.389-1.105v-3.59h-1.01v-.454h1.01v-1.2h.526v1.2h1.745v.453h-1.745v3.538c0 .358.084.632.252.821.175.183.431.274.768.274.343 0 .627-.102.852-.305l.22.368zM258.965 50.467h-4.722c.014.428.122.81.326 1.148.203.33.476.586.82.768.351.183.743.274 1.178.274.357 0 .687-.063.988-.19.309-.133.565-.326.768-.579l.305.348c-.238.288-.54.509-.904.663a2.917 2.917 0 01-1.168.232 2.95 2.95 0 01-1.462-.358 2.632 2.632 0 01-1.009-.99 2.87 2.87 0 01-.358-1.442c0-.534.112-1.011.337-1.433.231-.428.547-.761.946-1 .4-.239.849-.358 1.347-.358.497 0 .943.12 1.335.358.4.232.712.558.936.98.232.42.347.898.347 1.431l-.01.148zm-2.608-2.453c-.386 0-.733.087-1.042.263a1.95 1.95 0 00-.746.726c-.183.31-.288.66-.316 1.053h4.207a2.2 2.2 0 00-.316-1.053 2.056 2.056 0 00-.746-.726 2.07 2.07 0 00-1.041-.264zM267.438 47.55c.68 0 1.213.2 1.599.6.392.4.589.976.589 1.727v3.212h-.526v-3.17c0-.617-.151-1.088-.452-1.41-.302-.324-.723-.485-1.262-.485-.617 0-1.108.193-1.473.58-.357.385-.536.905-.536 1.558v2.927h-.526v-3.17c0-.617-.151-1.088-.452-1.41-.302-.324-.722-.485-1.262-.485-.617 0-1.108.193-1.473.58-.357.385-.536.905-.536 1.558v2.927h-.526v-5.497h.505v1.18c.182-.386.452-.685.81-.895.364-.218.795-.327 1.293-.327.498 0 .919.113 1.262.337.351.225.6.555.747.99.182-.407.466-.73.852-.969.393-.239.848-.358 1.367-.358z" fill="#E1D3C1"/></svg>