<svg width="26" height="26" viewBox="0 0 26 26" fill="none" xmlns="http://www.w3.org/2000/svg">
<path d="M15.2852 21.4133C21.1934 21.4133 26 16.6104 26 10.7067C26 4.80298 21.1934 0 15.2852 0C9.37698 0 4.57033 4.80298 4.57033 10.7067C4.57033 16.6104 9.37698 21.4133 15.2852 21.4133ZM15.2852 2.0297C20.0733 2.0297 23.9688 5.92216 23.9688 10.7067C23.9688 15.4912 20.0733 19.3836 15.2852 19.3836C10.497 19.3836 6.60158 15.4912 6.60158 10.7067C6.60158 5.92216 10.497 2.0297 15.2852 2.0297ZM0.297451 25.7028C-0.0991503 25.3065 -0.0991503 24.6638 0.297451 24.2675L4.84237 19.7261C5.23902 19.3297 5.88211 19.3297 6.27872 19.7261C6.67532 20.1224 6.67532 20.765 6.27872 21.1613L1.7338 25.7028C1.5355 25.901 1.27555 26 1.0156 26C0.75565 26 0.495802 25.901 0.297451 25.7028Z" fill="#E1D3C1"/>
</svg>
